<?xml version="1.0" encoding="UTF-8"?>
<!DOCTYPE svg PUBLIC "-//W3C//DTD SVG 1.1//EN" "http://www.w3.org/Graphics/SVG/1.1/DTD/svg11.dtd">
<svg width="153pt" height="264pt" viewBox="0 0 153 264" version="1.1" xmlns="http://www.w3.org/2000/svg" style="fill-opacity:1;">
<path fill="#040204" d=" M 47.58 103.91 C 56.58 72.94 65.58 41.97 74.56 10.99 C 99.38 11.01 124.19 11.00 149.00 11.00 C 149.00 13.67 149.00 16.33 149.00 19.00 C 125.59 19.00 102.19 19.00 78.78 19.00 C 68.20 54.97 57.57 90.93 47.04 126.91 C 45.31 126.96 43.59 127.00 41.86 127.03 L 41.25 126.58 C 33.13 109.32 25.10 92.03 17.05 74.74 C 13.59 75.98 10.24 77.49 6.95 79.10 C 6.36 77.57 5.76 76.05 5.23 74.51 C 11.66 71.79 17.93 68.67 24.35 65.94 C 31.49 80.97 38.09 96.28 45.23 111.33 C 46.14 108.90 46.88 106.41 47.58 103.91 Z"/>
<path fill="#040204" d=" M 91.34 35.09 C 100.26 30.92 110.15 28.38 120.03 29.03 C 126.02 29.82 132.60 31.96 135.75 37.56 C 140.08 45.54 138.36 55.84 132.84 62.83 C 122.87 76.06 109.65 86.67 101.07 100.99 C 109.38 101.00 117.69 101.01 126.00 101.00 C 127.67 101.16 129.20 100.46 130.62 99.67 C 132.98 98.47 133.04 95.51 134.28 93.46 C 135.68 92.46 137.65 93.27 139.27 93.07 C 138.69 99.03 138.50 105.02 138.22 111.00 C 122.01 110.96 105.81 111.09 89.60 110.93 C 89.75 109.55 89.58 108.09 90.10 106.77 C 95.20 94.29 104.50 84.28 113.35 74.36 C 118.72 68.01 124.71 61.50 126.35 53.05 C 127.10 47.97 126.65 42.26 123.30 38.12 C 118.09 32.10 107.61 32.63 102.52 38.56 C 100.50 40.64 99.44 43.38 98.34 46.01 C 96.02 46.00 93.71 46.00 91.39 45.98 C 91.41 42.35 91.44 38.72 91.34 35.09 Z"/>
<path fill="#040204" d=" M 3.00 139.00 C 51.67 139.00 100.33 139.00 149.00 139.00 C 149.00 142.67 149.00 146.33 149.00 150.00 C 100.33 150.00 51.67 150.00 3.00 150.00 C 3.00 146.33 3.00 142.67 3.00 139.00 Z"/>
<path fill="#040204" d=" M 52.34 181.10 C 61.27 176.91 71.19 174.37 81.09 175.03 C 87.02 175.84 93.52 177.94 96.69 183.45 C 101.11 191.44 99.37 201.82 93.83 208.85 C 83.87 222.08 70.64 232.66 62.08 247.00 C 70.75 246.96 79.43 247.07 88.10 246.96 C 91.42 246.68 93.98 244.13 94.62 240.90 C 95.03 238.09 98.29 239.18 100.27 239.07 C 99.69 245.03 99.50 251.02 99.22 257.00 C 83.04 257.00 66.86 257.00 50.68 257.00 C 50.78 255.59 50.55 254.10 51.09 252.77 C 56.04 240.74 64.84 230.95 73.43 221.41 C 78.91 214.92 85.16 208.44 87.17 199.90 C 88.17 194.76 87.81 189.01 84.71 184.62 C 79.70 178.11 68.78 178.45 63.55 184.53 C 61.53 186.59 60.45 189.32 59.40 191.96 C 57.06 192.00 54.73 192.00 52.39 192.00 C 52.40 188.36 52.44 184.73 52.34 181.10 Z"/>
</svg>